<?xml version="1.0" encoding="utf-8"?>
<!-- Generator: Adobe Illustrator 17.1.0, SVG Export Plug-In . SVG Version: 6.00 Build 0)  -->
<!DOCTYPE svg PUBLIC "-//W3C//DTD SVG 1.1//EN" "http://www.w3.org/Graphics/SVG/1.1/DTD/svg11.dtd">
<svg version="1.1" id="Capa_1" xmlns="http://www.w3.org/2000/svg" xmlns:xlink="http://www.w3.org/1999/xlink" x="0px" y="0px"
	 viewBox="0 0 127.6 56.3" enable-background="new 0 0 127.6 56.3" xml:space="preserve">
<g>
	<g>
		<path fill="#1B2340" d="M40.2,29.4V27c0-1.6,0.5-2.9,1.4-3.9c0.9-1,2.3-1.5,4.2-1.5c1.2,0,2.2,0.2,2.9,0.6s1.2,0.9,1.2,1.4
			c0,0.3-0.1,0.6-0.3,0.9c-0.2,0.3-0.5,0.5-0.8,0.5c-0.1,0-0.4-0.1-1-0.4c-0.5-0.3-1.1-0.4-1.8-0.4c-2,0-3,1-3,2.9v2.4
			c0,1.9,1,2.9,3,2.9c0.7,0,1.3-0.1,1.9-0.4c0.5-0.3,0.9-0.4,1-0.4c0.4,0,0.6,0.1,0.9,0.4c0.2,0.3,0.3,0.6,0.3,0.9
			c0,0.5-0.4,1-1.3,1.4c-0.8,0.4-1.8,0.6-3.1,0.6c-1.9,0-3.3-0.5-4.2-1.5C40.7,32.3,40.2,31.1,40.2,29.4z"/>
		<path fill="#1B2340" d="M52.8,33.7V15.1c0-0.3,0.1-0.5,0.4-0.6c0.3-0.2,0.6-0.3,1-0.3c0.4,0,0.8,0.1,1,0.3
			c0.3,0.2,0.4,0.4,0.4,0.6v8.6c0.3-0.6,0.8-1.1,1.3-1.5c0.6-0.4,1.3-0.6,2.1-0.6c1.3,0,2.4,0.5,3.3,1.6c0.9,1,1.4,2.3,1.4,3.8v6.7
			c0,0.3-0.1,0.5-0.4,0.7c-0.3,0.2-0.6,0.3-1,0.3c-0.4,0-0.7-0.1-1-0.3C61.1,34.2,61,34,61,33.7V27c0-0.7-0.3-1.4-0.8-1.9
			s-1.2-0.9-1.9-0.9c-0.7,0-1.3,0.3-1.8,0.8c-0.5,0.5-0.8,1.2-0.8,2v6.7c0,0.3-0.1,0.5-0.4,0.6c-0.3,0.2-0.6,0.3-1,0.3
			c-0.4,0-0.7-0.1-1-0.3C52.9,34.1,52.8,33.9,52.8,33.7z"/>
		<path fill="#1B2340" d="M66.7,29.4v-2.6c0-1.4,0.5-2.7,1.7-3.7s2.4-1.5,4-1.5c1.5,0,2.8,0.5,3.8,1.4c1,0.9,1.6,2.1,1.6,3.6
			c0,0.5-0.1,1-0.2,1.3c-0.1,0.4-0.3,0.6-0.6,0.7c-0.3,0.1-0.5,0.2-0.8,0.3c-0.3,0-0.5,0.1-0.9,0.1h-5.7v0.6c0,0.9,0.3,1.7,1,2.2
			c0.6,0.5,1.5,0.8,2.6,0.8c0.8,0,1.4-0.2,2.1-0.5c0.7-0.3,1.1-0.5,1.2-0.5c0.3,0,0.6,0.1,0.8,0.4c0.2,0.3,0.3,0.6,0.3,0.9
			c0,0.4-0.4,0.9-1.3,1.4s-1.9,0.7-3.2,0.7c-1.8,0-3.3-0.5-4.5-1.5C67.3,32.3,66.7,31,66.7,29.4z M69.6,27.1h4.5
			c0.4,0,0.7,0,0.8-0.1c0.1-0.1,0.2-0.3,0.2-0.6c0-0.7-0.3-1.3-0.8-1.8s-1.2-0.8-1.9-0.8c-0.8,0-1.4,0.3-1.9,0.7
			c-0.5,0.5-0.8,1.1-0.8,1.8L69.6,27.1L69.6,27.1z"/>
		<path fill="#1B2340" d="M80.2,29.4V27c0-1.6,0.5-2.9,1.4-3.9c0.9-1,2.3-1.5,4.2-1.5c1.2,0,2.2,0.2,2.9,0.6s1.2,0.9,1.2,1.4
			c0,0.3-0.1,0.6-0.3,0.9s-0.5,0.5-0.8,0.5c-0.1,0-0.4-0.1-1-0.4c-0.5-0.3-1.1-0.4-1.8-0.4c-2,0-3,1-3,2.9v2.4c0,1.9,1,2.9,3,2.9
			c0.7,0,1.3-0.1,1.9-0.4c0.5-0.3,0.9-0.4,1-0.4c0.4,0,0.6,0.1,0.9,0.4c0.2,0.3,0.3,0.6,0.3,0.9c0,0.5-0.4,1-1.3,1.4
			c-0.8,0.4-1.8,0.6-3.1,0.6c-1.9,0-3.3-0.5-4.2-1.5C80.7,32.3,80.2,31.1,80.2,29.4z"/>
		<path fill="#1B2340" d="M92.8,33.7V15c0-0.3,0.1-0.5,0.4-0.7c0.3-0.2,0.6-0.3,1-0.3c0.4,0,0.8,0.1,1,0.3c0.3,0.2,0.4,0.4,0.4,0.7
			v12.1l5.7-5.2c0.2-0.2,0.4-0.3,0.6-0.3c0.3,0,0.6,0.1,0.9,0.4c0.3,0.3,0.5,0.6,0.5,0.9c0,0.3-0.1,0.4-0.3,0.6l-3.5,3.1l4.3,6.1
			c0.1,0.2,0.2,0.3,0.2,0.5c0,0.3-0.2,0.6-0.5,1c-0.4,0.3-0.7,0.5-1,0.5s-0.6-0.1-0.8-0.4l-4-5.9l-2,1.8v3.4c0,0.3-0.1,0.5-0.4,0.6
			c-0.3,0.2-0.6,0.3-1,0.3s-0.7-0.1-1-0.3C92.9,34.1,92.8,33.9,92.8,33.7z"/>
		<path fill="#1B2340" d="M105.6,29.4v-2.6c0-1.4,0.5-2.7,1.7-3.7s2.4-1.5,4-1.5c1.5,0,2.8,0.5,3.8,1.4c1,0.9,1.6,2.1,1.6,3.6
			c0,0.5-0.1,1-0.2,1.3c-0.1,0.4-0.3,0.6-0.6,0.7c-0.3,0.1-0.5,0.2-0.8,0.3c-0.3,0-0.5,0.1-0.9,0.1h-5.7v0.6c0,0.9,0.3,1.7,1,2.2
			c0.6,0.5,1.5,0.8,2.6,0.8c0.8,0,1.4-0.2,2.1-0.5c0.7-0.3,1.1-0.5,1.2-0.5c0.3,0,0.6,0.1,0.8,0.4c0.2,0.3,0.3,0.6,0.3,0.9
			c0,0.4-0.4,0.9-1.3,1.4s-1.9,0.7-3.2,0.7c-1.8,0-3.3-0.5-4.5-1.5C106.1,32.3,105.6,31,105.6,29.4z M108.4,27.1h4.5
			c0.4,0,0.7,0,0.8-0.1c0.1-0.1,0.2-0.3,0.2-0.6c0-0.7-0.3-1.3-0.8-1.8s-1.2-0.8-1.9-0.8c-0.8,0-1.4,0.3-1.9,0.7
			c-0.5,0.5-0.8,1.1-0.8,1.8L108.4,27.1L108.4,27.1z"/>
		<path fill="#1B2340" d="M119.5,33.7v-11c0-0.3,0.1-0.5,0.4-0.7s0.6-0.3,1-0.3c0.4,0,0.7,0.1,0.9,0.3c0.3,0.2,0.4,0.4,0.4,0.7v1.2
			c0.3-0.6,0.8-1.2,1.4-1.6c0.6-0.4,1.3-0.7,2-0.7h0.9c0.3,0,0.5,0.1,0.8,0.4c0.2,0.3,0.3,0.5,0.3,0.9s-0.1,0.6-0.3,0.9
			c-0.2,0.3-0.5,0.4-0.8,0.4h-0.9c-0.9,0-1.6,0.4-2.3,1.1c-0.6,0.8-1,1.7-1,2.9v5.6c0,0.3-0.1,0.5-0.4,0.6c-0.3,0.2-0.6,0.3-1,0.3
			s-0.7-0.1-1-0.3C119.6,34.1,119.5,33.9,119.5,33.7z"/>
	</g>
	<g>
		<path fill="#3A6B92" d="M46.9,45.3c0.3,0,0.4-0.1,0.6-0.3c0.1-0.2,0.2-0.5,0.2-0.8c0-0.3-0.1-0.5-0.2-0.8
			c-0.1-0.2-0.3-0.3-0.6-0.3h-3.3v-5c0-0.3-0.1-0.5-0.4-0.6c-0.3-0.2-0.6-0.3-1-0.3s-0.7,0.1-1,0.3c-0.3,0.2-0.4,0.4-0.4,0.6v13.6
			c0,2.8,1.6,4.2,4.7,4.2h0.9c0.4,0,0.7-0.1,0.9-0.4c0.2-0.3,0.3-0.5,0.3-0.9c0-0.4-0.1-0.6-0.3-0.9c-0.2-0.3-0.5-0.4-0.9-0.4h-0.9
			c-0.7,0-1.2-0.1-1.5-0.4c-0.3-0.3-0.4-0.7-0.4-1.4v-6.5H46.9z"/>
		<path fill="#3A6B92" d="M51.7,37c-0.5,0-0.8,0.1-1.1,0.4s-0.5,0.6-0.5,1s0.2,0.8,0.5,1c0.3,0.3,0.7,0.4,1.1,0.4
			c0.5,0,0.8-0.1,1.1-0.4c0.3-0.3,0.5-0.6,0.5-1c0-0.4-0.2-0.8-0.5-1C52.5,37.1,52.2,37,51.7,37z"/>
		<path fill="#3A6B92" d="M52.7,43.4c-0.3-0.2-0.6-0.3-1-0.3c-0.4,0-0.8,0.1-1,0.3c-0.3,0.2-0.4,0.4-0.4,0.7v11
			c0,0.3,0.1,0.5,0.4,0.6c0.3,0.2,0.6,0.3,1,0.3c0.4,0,0.8-0.1,1-0.3c0.3-0.2,0.4-0.4,0.4-0.6v-11C53.1,43.8,53,43.6,52.7,43.4z"/>
		<path fill="#3A6B92" d="M70.6,43c-0.8,0-1.6,0.2-2.3,0.7c-0.7,0.5-1.3,1.1-1.8,2c-0.3-0.8-0.8-1.5-1.4-2C64.5,43.3,63.8,43,63,43
			c-1.6,0-2.8,0.7-3.6,2.1v-1c0-0.3-0.1-0.5-0.4-0.7c-0.3-0.2-0.5-0.3-0.9-0.3c-0.4,0-0.8,0.1-1,0.3c-0.3,0.2-0.4,0.4-0.4,0.7v11
			c0,0.3,0.1,0.5,0.4,0.6c0.3,0.2,0.6,0.3,1,0.3c0.4,0,0.7-0.1,1-0.3c0.3-0.2,0.4-0.4,0.4-0.6v-6.7c0-0.9,0.3-1.5,0.8-2
			c0.5-0.5,1.1-0.8,1.8-0.8c0.7,0,1.3,0.3,1.8,0.8c0.5,0.5,0.8,1.2,0.8,2v6.8c0,0.3,0.1,0.5,0.4,0.7c0.3,0.1,0.6,0.2,1,0.2
			c0.4,0,0.8-0.1,1-0.2c0.3-0.1,0.4-0.4,0.4-0.7v-6.8c0-0.9,0.3-1.5,0.8-2c0.5-0.5,1.1-0.8,1.8-0.8c0.7,0,1.3,0.3,1.8,0.8
			c0.5,0.5,0.8,1.2,0.8,2.1v6.7c0,0.3,0.1,0.5,0.4,0.6c0.3,0.2,0.6,0.3,1,0.3c0.4,0,0.7-0.1,1-0.3c0.3-0.2,0.4-0.4,0.4-0.6v-6.7
			c0-1.6-0.5-2.9-1.4-3.9C73,43.5,71.9,43,70.6,43z"/>
		<path fill="#3A6B92" d="M86.8,50.4c0.4,0,0.7,0,0.9-0.1c0.3,0,0.5-0.1,0.8-0.3c0.3-0.1,0.5-0.4,0.6-0.7c0.1-0.4,0.2-0.8,0.2-1.3
			c0-1.4-0.5-2.6-1.6-3.6c-1-0.9-2.3-1.4-3.8-1.4c-1.5,0-2.9,0.5-4,1.5c-1.1,1-1.7,2.3-1.7,3.7v2.6c0,1.6,0.6,2.9,1.8,3.9
			c1.2,1,2.7,1.5,4.5,1.5c1.3,0,2.3-0.2,3.2-0.7s1.3-0.9,1.3-1.4c0-0.3-0.1-0.5-0.3-0.9C88.5,53.1,88.3,53,88,53
			c-0.1,0-0.5,0.2-1.2,0.5c-0.6,0.4-1.4,0.5-2.1,0.5c-1,0-1.9-0.3-2.6-0.8c-0.6-0.5-1-1.3-1-2.2v-0.6L86.8,50.4L86.8,50.4z
			 M81.1,47.7c0-0.7,0.3-1.3,0.8-1.8c0.5-0.5,1.2-0.7,1.9-0.7c0.8,0,1.4,0.3,1.9,0.8c0.5,0.5,0.8,1.1,0.8,1.8c0,0.3-0.1,0.5-0.2,0.6
			s-0.4,0.1-0.8,0.1h-4.5L81.1,47.7L81.1,47.7z"/>
	</g>
	<g>
		<path fill="#1B2340" d="M24.4,5.3c-0.3-0.6-0.1-1,0.2-1.4c0.9-1.1,1.8-2.2,2.7-3.3c0.4-0.6,0.8-0.6,1.4-0.4
			c3.4,1.5,6.8,2.9,10.2,4.4c0.5,0.2,0.7,0.5,0.7,1c0,1.1,0,2.2,0,3.4c0,1.8-1.4,2.9-3.2,2.4c-0.1,0-0.1,0-0.3,0
			c-0.3,0.6-0.5,1.2-0.8,1.8c-1.3,2.7-2.6,5.3-4.4,7.8c-0.9,1.2-1.9,2.3-3.2,3.2c-0.1,0.1-0.3,0.3-0.3,0.5c0,1.9,0,3.9,0,5.9
			c0,0.1,0,0.2,0,0.3c0.5,0,0.9,0,1.4,0.1c1,0.1,1.8,0.6,2.4,1.5c0.4,0.6,0.9,1.3,1.3,2c0.4,0.6,0.5,1.2,0.5,1.8
			c0,6.5,0,13.1,0,19.6c0,0.1,0,0.3,0,0.4c-0.6,0-1.3,0-2,0c0-0.2,0-0.4,0-0.5c0-6.5,0-13,0-19.5c0-0.1,0-0.3,0-0.4
			c-0.4-1.1-1-2-1.8-2.9c-0.6-0.1-1.1-0.1-1.7-0.2c0,0.7,0,1.4,0,2c0.6,0,1.3,0,1.9,0c0.7,0,1,0.3,1,0.9c0,0.6-0.4,0.9-1,0.9
			c-8.4,0-16.9,0-25.4,0c-0.8,0-1.3-0.5-1-1.2c0.1-0.4,0.4-0.6,0.9-0.6c0.7,0,1.3,0,2,0c0-0.7,0-1.3,0-2c-0.7,0-1.3,0-2,0
			c-0.3,0-0.5,0.3-0.7,0.5C3,33.8,2.6,34.4,2.2,35C2,35.3,2,35.7,2,36c0,6.5,0,13,0,19.4c0,0.2,0,0.4,0,0.6c-0.6,0-1.3,0-2,0
			c0-0.1,0-0.3,0-0.5c0-6.5,0-13,0-19.5c0-0.8,0.2-1.4,0.6-2.1C1,33.5,1.4,33,1.8,32.4c0.7-1.1,1.8-1.7,3.1-1.7c0.4,0,0.8,0,1.3,0
			c0-0.2,0-0.4,0-0.5c0-3.1,0-6.2,0-9.4c0-0.9,0.3-1.2,1.2-1.2c0.9,0,1.8,0,2.7,0c-0.1-0.5-0.3-0.9-0.4-1.4c-0.2-0.9,0-1.8,0.5-2.6
			c1-1.8,2.1-3.5,3.2-5.3c0.5-0.8,1.1-1.3,2-1.7c2.9-1.1,5.8-2.2,8.7-3.2C24,5.4,24.2,5.4,24.4,5.3z M14.8,19.6c0,0,0.1-0.1,0.1-0.1
			c-0.3-0.4-0.6-0.8-0.9-1.1c-0.4-0.5-0.4-1.3,0.2-1.6c0.4-0.2,0.8-0.4,1.2-0.6c1.1-0.6,2.3-1.1,3.1-2.2c0.3-0.4,0.8-0.4,1.2-0.1
			c0.4,0.3,0.8,0.5,1.2,0.7c0.8,0.4,1.7,0.6,2.6,0.6c0.4,0,0.8,0.1,1,0.6s0,0.8-0.3,1.1c-0.2,0.3-0.5,0.5-0.6,0.8
			c-0.5,0.8-1,1.6-1.5,2.4c-0.4,0.7-0.9,1.3-1.6,1.7c-1.5,0.9-2.9,1.8-4.4,2.7c-1,0.6-1.2,1.7-0.7,2.6c0.5,0.9,1.6,1.1,2.6,0.5
			c1.2-0.7,2.4-1.5,3.7-2.2c0.8-0.5,1.5-0.9,2.4-1.3c2.4-0.8,4.2-2.4,5.6-4.4c1.4-2,2.6-4.2,3.6-6.4c0.4-0.9,0.8-1.8,1.2-2.7
			c-0.1-0.1-0.2-0.1-0.2-0.1c-2.5-1.3-5-2.5-7.5-3.7c-0.2-0.1-0.4-0.1-0.6,0c-3.4,1.3-6.8,2.6-10.2,3.8c-0.6,0.2-1,0.6-1.3,1.1
			c-0.9,1.6-1.8,3.2-2.8,4.7c-0.8,1.2-0.5,2.2,0.1,3.3c0,0.1,0.2,0.1,0.3,0.1C13.1,19.6,14,19.6,14.8,19.6z M16.8,21.6
			C16.8,21.5,16.8,21.5,16.8,21.6c-3-0.1-5.9-0.1-8.8-0.1c0,4.4,0,8.8,0,13.2c5.9,0,11.8,0,17.7,0c0-3.1,0-6.2,0-9.4
			c-0.8,0.3-1.5,0.6-2.2,1c-1.5,0.9-3.1,1.8-4.6,2.7c-0.8,0.5-1.7,0.6-2.7,0.5c-1.6-0.3-2.7-1.4-2.9-3.1C13,25,13.7,23.5,15,22.7
			C15.6,22.3,16.2,22,16.8,21.6z M26.5,4.4c0.1,0.1,0.1,0.1,0.2,0.1c3.3,1.7,6.7,3.4,10.1,5c0.5,0.3,0.9,0,0.9-0.6
			c0-0.8,0-1.7,0-2.5c0-0.3-0.1-0.4-0.3-0.5c-0.7-0.3-1.3-0.6-2-0.9c-2.2-1-4.5-1.9-6.7-2.9c-0.1-0.1-0.4-0.1-0.4,0
			C27.7,2.9,27.1,3.6,26.5,4.4z M19.4,15.9c-1.1,0.7-2.2,1.4-3.3,2.1c0.2,0.4,0.4,0.9,0.6,1.3c0.1,0.2,0.2,0.3,0.4,0.3
			c0.8,0,1.6,0,2.4,0c0.1,0,0.3-0.1,0.4-0.3c0.5-0.7,0.9-1.5,1.4-2.2c0.1-0.1,0.2-0.3,0.3-0.4C20.9,16.5,20.1,16.2,19.4,15.9z"/>
		<path fill="#3A6B92" d="M16.6,56.2c-3,0-6,0-9,0c-0.3,0-0.5-0.1-0.6-0.3C2.6,49,6.6,40,14.5,38.6c6.2-1.1,12.2,3.2,13.2,9.3
			c0.4,2.8-0.1,5.5-1.6,7.9c-0.2,0.3-0.4,0.4-0.7,0.4C22.5,56.2,19.5,56.2,16.6,56.2z M16.3,49.5c-0.1-0.2-0.2-0.3-0.3-0.4
			c-1.5-1.5-2.9-2.9-4.4-4.4c-0.5-0.5-1.2-0.5-1.7,0c-0.5,0.5-0.5,1.1,0,1.7c1.9,1.9,3.8,3.8,5.7,5.7c0.5,0.5,1.1,0.5,1.7,0
			c1.6-1.6,3.2-3.2,4.8-4.8c0.5-0.5,0.5-1.2,0-1.7c-0.5-0.5-1.1-0.5-1.7,0c-0.4,0.4-0.8,0.8-1.2,1.2C18.2,47.6,17.3,48.5,16.3,49.5z
			"/>
	</g>
</g>
</svg>
