<?xml version="1.0" encoding="utf-8"?>
<!-- Generator: Adobe Illustrator 17.1.0, SVG Export Plug-In . SVG Version: 6.00 Build 0)  -->
<!DOCTYPE svg PUBLIC "-//W3C//DTD SVG 1.1//EN" "http://www.w3.org/Graphics/SVG/1.1/DTD/svg11.dtd">
<svg version="1.1" id="Capa_1" xmlns="http://www.w3.org/2000/svg" xmlns:xlink="http://www.w3.org/1999/xlink" x="0px" y="0px"
	 viewBox="0 0 17 17" enable-background="new 0 0 17 17" xml:space="preserve">
<path fill="#FFFFFF" d="M-434.3,3.9h-19.6c-0.6,0-1-0.4-1-0.9V1.3c0-0.5,0.5-0.9,1-0.9h19.6c0.6,0,1,0.4,1,0.9V3
	C-433.2,3.5-433.7,3.9-434.3,3.9z"/>
<path fill="#FFFFFF" d="M-434.3,10.2h-19.6c-0.6,0-1-0.4-1-0.9V7.6c0-0.5,0.5-0.9,1-0.9h19.6c0.6,0,1,0.4,1,0.9v1.7
	C-433.2,9.8-433.7,10.2-434.3,10.2z"/>
<path fill="#FFFFFF" d="M-434.3,16.6h-19.6c-0.6,0-1-0.4-1-0.9V14c0-0.5,0.5-0.9,1-0.9h19.6c0.6,0,1,0.4,1,0.9v1.7
	C-433.2,16.2-433.7,16.6-434.3,16.6z"/>
<g>
	<path fill="#FFFFFF" d="M16.7,2.8L2.8,16.7c-0.4,0.4-1,0.4-1.4,0.1l-1.2-1.2c-0.3-0.3-0.3-1,0.1-1.4L14.2,0.3
		c0.4-0.4,1-0.4,1.4-0.1l1.2,1.2C17.1,1.8,17.1,2.4,16.7,2.8z"/>
	<path fill="#FFFFFF" d="M14.2,16.7L0.3,2.8c-0.4-0.4-0.4-1-0.1-1.4l1.2-1.2c0.3-0.3,1-0.3,1.4,0.1l13.9,13.9c0.4,0.4,0.4,1,0.1,1.4
		l-1.2,1.2C15.2,17.1,14.6,17.1,14.2,16.7z"/>
</g>
</svg>
