<?xml version="1.0" encoding="utf-8"?>
<!-- Generator: Adobe Illustrator 17.1.0, SVG Export Plug-In . SVG Version: 6.00 Build 0)  -->
<!DOCTYPE svg PUBLIC "-//W3C//DTD SVG 1.1//EN" "http://www.w3.org/Graphics/SVG/1.1/DTD/svg11.dtd">
<svg version="1.1" id="Capa_1" xmlns="http://www.w3.org/2000/svg" xmlns:xlink="http://www.w3.org/1999/xlink" x="0px" y="0px"
	 viewBox="0 0 17 17" enable-background="new 0 0 17 17" xml:space="preserve">
<g>
	<path fill="#FFFFFF" d="M16.1,3.9H0.9C0.4,3.9,0.1,3.5,0.1,3V1.3c0-0.5,0.4-0.9,0.8-0.9h15.2c0.4,0,0.8,0.4,0.8,0.9V3
		C16.9,3.5,16.6,3.9,16.1,3.9z"/>
	<path fill="#FFFFFF" d="M16.1,10.2H0.9c-0.4,0-0.8-0.4-0.8-0.9V7.6c0-0.5,0.4-0.9,0.8-0.9h15.2c0.4,0,0.8,0.4,0.8,0.9v1.7
		C16.9,9.8,16.6,10.2,16.1,10.2z"/>
	<path fill="#FFFFFF" d="M16.1,16.6H0.9c-0.4,0-0.8-0.4-0.8-0.9V14c0-0.5,0.4-0.9,0.8-0.9h15.2c0.4,0,0.8,0.4,0.8,0.9v1.7
		C16.9,16.2,16.6,16.6,16.1,16.6z"/>
</g>
<g>
	<path fill="#FFFFFF" d="M39.8,2.8L25.9,16.7c-0.4,0.4-1,0.4-1.4,0.1l-1.2-1.2c-0.3-0.3-0.3-1,0.1-1.4L37.3,0.3
		c0.4-0.4,1-0.4,1.4-0.1l1.2,1.2C40.2,1.8,40.2,2.4,39.8,2.8z"/>
	<path fill="#FFFFFF" d="M37.3,16.7L23.5,2.8c-0.4-0.4-0.4-1-0.1-1.4l1.2-1.2c0.3-0.3,1-0.3,1.4,0.1l13.9,13.9
		c0.4,0.4,0.4,1,0.1,1.4l-1.2,1.2C38.3,17.1,37.7,17.1,37.3,16.7z"/>
</g>
</svg>
