<?xml version="1.0" encoding="utf-8"?>
<!-- Generator: Adobe Illustrator 17.1.0, SVG Export Plug-In . SVG Version: 6.00 Build 0)  -->
<!DOCTYPE svg PUBLIC "-//W3C//DTD SVG 1.1//EN" "http://www.w3.org/Graphics/SVG/1.1/DTD/svg11.dtd">
<svg version="1.1" id="Capa_1" xmlns="http://www.w3.org/2000/svg" xmlns:xlink="http://www.w3.org/1999/xlink" x="0px" y="0px"
	 viewBox="266.1 -174.2 74.4 32.7" enable-background="new 266.1 -174.2 74.4 32.7" xml:space="preserve">
<g>
	<g>
		<defs>
			<rect id="SVGID_3_" x="-2.3" y="87.2" width="597.5" height="38.3"/>
		</defs>
		<clipPath id="SVGID_2_">
			<use xlink:href="#SVGID_3_"  overflow="visible"/>
		</clipPath>
		<g id="Blurred_Home_Wallpaper_Background_1_" clip-path="url(#SVGID_2_)">
			
				<image overflow="visible" enable-background="new    " width="747" height="770" id="Raster_Image_2_" xlink:href="18459FA477EF8563.jpg"  transform="matrix(1.2391 0 0 0.7174 -150.8085 -373.443)">
			</image>
		</g>
	</g>
</g>
<g>
	<g>
		<path fill="#FFFFFF" d="M289.7-157.1v-1.4c0-0.9,0.3-1.7,0.8-2.3c0.5-0.6,1.3-0.9,2.4-0.9c0.7,0,1.3,0.1,1.7,0.3
			c0.4,0.2,0.7,0.5,0.7,0.8c0,0.2-0.1,0.3-0.2,0.5c-0.1,0.2-0.3,0.3-0.5,0.3c-0.1,0-0.2-0.1-0.6-0.2c-0.3-0.2-0.6-0.2-1-0.2
			c-1.2,0-1.7,0.6-1.7,1.7v1.4c0,1.1,0.6,1.7,1.7,1.7c0.4,0,0.8-0.1,1.1-0.2c0.3-0.2,0.5-0.2,0.6-0.2c0.2,0,0.3,0.1,0.5,0.2
			c0.1,0.2,0.2,0.3,0.2,0.5c0,0.3-0.2,0.6-0.8,0.8c-0.5,0.2-1,0.3-1.8,0.3c-1.1,0-1.9-0.3-2.4-0.9
			C290-155.4,289.7-156.2,289.7-157.1z"/>
		<path fill="#FFFFFF" d="M297-154.6v-10.9c0-0.2,0.1-0.3,0.2-0.3c0.2-0.1,0.3-0.2,0.6-0.2c0.2,0,0.5,0.1,0.6,0.2
			c0.2,0.1,0.2,0.2,0.2,0.3v5c0.2-0.3,0.5-0.6,0.8-0.9c0.3-0.2,0.8-0.3,1.2-0.3c0.8,0,1.4,0.3,1.9,0.9c0.5,0.6,0.8,1.3,0.8,2.2v3.9
			c0,0.2-0.1,0.3-0.2,0.4c-0.2,0.1-0.3,0.2-0.6,0.2c-0.2,0-0.4-0.1-0.6-0.2c-0.2-0.1-0.2-0.2-0.2-0.4v-3.9c0-0.4-0.2-0.8-0.5-1.1
			c-0.3-0.3-0.7-0.5-1.1-0.5s-0.8,0.2-1,0.5c-0.3,0.3-0.5,0.7-0.5,1.2v3.9c0,0.2-0.1,0.3-0.2,0.3c-0.2,0.1-0.3,0.2-0.6,0.2
			c-0.2,0-0.4-0.1-0.6-0.2C297.1-154.4,297-154.5,297-154.6z"/>
		<path fill="#FFFFFF" d="M305.2-157.1v-1.5c0-0.8,0.3-1.6,1-2.2c0.6-0.6,1.4-0.9,2.3-0.9c0.9,0,1.6,0.3,2.2,0.8s0.9,1.2,0.9,2.1
			c0,0.3-0.1,0.6-0.1,0.8c-0.1,0.2-0.2,0.3-0.3,0.4c-0.2,0.1-0.3,0.1-0.5,0.2c-0.2,0-0.3,0.1-0.5,0.1h-3.3v0.3c0,0.5,0.2,1,0.6,1.3
			c0.3,0.3,0.9,0.5,1.5,0.5c0.5,0,0.8-0.1,1.2-0.3c0.4-0.2,0.6-0.3,0.7-0.3c0.2,0,0.3,0.1,0.5,0.2c0.1,0.2,0.2,0.3,0.2,0.5
			c0,0.2-0.2,0.5-0.8,0.8c-0.5,0.3-1.1,0.4-1.9,0.4c-1,0-1.9-0.3-2.6-0.9C305.5-155.4,305.2-156.2,305.2-157.1z M306.8-158.4h2.6
			c0.2,0,0.4,0,0.5-0.1c0.1-0.1,0.1-0.2,0.1-0.3c0-0.4-0.2-0.8-0.5-1c-0.3-0.3-0.7-0.5-1.1-0.5c-0.5,0-0.8,0.2-1.1,0.4
			c-0.3,0.3-0.5,0.6-0.5,1L306.8-158.4L306.8-158.4z"/>
		<path fill="#FFFFFF" d="M313-157.1v-1.4c0-0.9,0.3-1.7,0.8-2.3c0.5-0.6,1.3-0.9,2.4-0.9c0.7,0,1.3,0.1,1.7,0.3
			c0.4,0.2,0.7,0.5,0.7,0.8c0,0.2-0.1,0.3-0.2,0.5c-0.1,0.2-0.3,0.3-0.5,0.3c-0.1,0-0.2-0.1-0.6-0.2c-0.3-0.2-0.6-0.2-1-0.2
			c-1.2,0-1.7,0.6-1.7,1.7v1.4c0,1.1,0.6,1.7,1.7,1.7c0.4,0,0.8-0.1,1.1-0.2c0.3-0.2,0.5-0.2,0.6-0.2c0.2,0,0.3,0.1,0.5,0.2
			c0.1,0.2,0.2,0.3,0.2,0.5c0,0.3-0.2,0.6-0.8,0.8c-0.5,0.2-1,0.3-1.8,0.3c-1.1,0-1.9-0.3-2.4-0.9C313.2-155.4,313-156.2,313-157.1z
			"/>
		<path fill="#FFFFFF" d="M320.3-154.6v-10.9c0-0.2,0.1-0.3,0.2-0.4c0.2-0.1,0.3-0.2,0.6-0.2c0.2,0,0.5,0.1,0.6,0.2
			c0.2,0.1,0.2,0.2,0.2,0.4v7l3.3-3c0.1-0.1,0.2-0.2,0.3-0.2c0.2,0,0.3,0.1,0.5,0.2c0.2,0.2,0.3,0.3,0.3,0.5c0,0.2-0.1,0.2-0.2,0.3
			l-2,1.8l2.5,3.5c0.1,0.1,0.1,0.2,0.1,0.3c0,0.2-0.1,0.3-0.3,0.6c-0.2,0.2-0.4,0.3-0.6,0.3c-0.2,0-0.3-0.1-0.5-0.2l-2.3-3.4l-1.2,1
			v2c0,0.2-0.1,0.3-0.2,0.3c-0.2,0.1-0.3,0.2-0.6,0.2c-0.2,0-0.4-0.1-0.6-0.2C320.4-154.4,320.3-154.5,320.3-154.6z"/>
		<path fill="#FFFFFF" d="M327.7-157.1v-1.5c0-0.8,0.3-1.6,1-2.2c0.6-0.6,1.4-0.9,2.3-0.9c0.9,0,1.6,0.3,2.2,0.8s0.9,1.2,0.9,2.1
			c0,0.3-0.1,0.6-0.1,0.8c-0.1,0.2-0.2,0.3-0.3,0.4s-0.3,0.1-0.5,0.2c-0.2,0-0.3,0.1-0.5,0.1h-3.3v0.3c0,0.5,0.2,1,0.6,1.3
			c0.3,0.3,0.9,0.5,1.5,0.5c0.5,0,0.8-0.1,1.2-0.3c0.4-0.2,0.6-0.3,0.7-0.3c0.2,0,0.3,0.1,0.5,0.2s0.2,0.3,0.2,0.5
			c0,0.2-0.2,0.5-0.8,0.8s-1.1,0.4-1.9,0.4c-1,0-1.9-0.3-2.6-0.9C328.1-155.4,327.7-156.2,327.7-157.1z M329.4-158.4h2.6
			c0.2,0,0.4,0,0.5-0.1c0.1-0.1,0.1-0.2,0.1-0.3c0-0.4-0.2-0.8-0.5-1c-0.3-0.3-0.7-0.5-1.1-0.5s-0.8,0.2-1.1,0.4
			c-0.3,0.3-0.5,0.6-0.5,1L329.4-158.4L329.4-158.4z"/>
		<path fill="#FFFFFF" d="M335.8-154.6v-6.4c0-0.2,0.1-0.3,0.2-0.4c0.2-0.1,0.3-0.2,0.6-0.2c0.2,0,0.4,0.1,0.5,0.2
			c0.2,0.1,0.2,0.2,0.2,0.4v0.7c0.2-0.3,0.5-0.7,0.8-0.9c0.3-0.2,0.8-0.4,1.2-0.4h0.5c0.2,0,0.3,0.1,0.5,0.2
			c0.1,0.2,0.2,0.3,0.2,0.5s-0.1,0.3-0.2,0.5c-0.1,0.2-0.3,0.2-0.5,0.2h-0.5c-0.5,0-0.9,0.2-1.3,0.6c-0.3,0.5-0.6,1-0.6,1.7v3.3
			c0,0.2-0.1,0.3-0.2,0.3c-0.2,0.1-0.3,0.2-0.6,0.2c-0.2,0-0.4-0.1-0.6-0.2C335.8-154.4,335.8-154.5,335.8-154.6z"/>
	</g>
	<g>
		<path fill="#FFFFFF" d="M293.6-147.9c0.2,0,0.2-0.1,0.3-0.2c0.1-0.1,0.1-0.3,0.1-0.5c0-0.2-0.1-0.3-0.1-0.5
			c-0.1-0.1-0.2-0.2-0.3-0.2h-1.9v-2.9c0-0.2-0.1-0.3-0.2-0.3c-0.2-0.1-0.3-0.2-0.6-0.2c-0.2,0-0.4,0.1-0.6,0.2
			c-0.2,0.1-0.2,0.2-0.2,0.3v7.9c0,1.6,0.9,2.4,2.7,2.4h0.5c0.2,0,0.4-0.1,0.5-0.2c0.1-0.2,0.2-0.3,0.2-0.5s-0.1-0.3-0.2-0.5
			s-0.3-0.2-0.5-0.2h-0.5c-0.4,0-0.7-0.1-0.9-0.2c-0.2-0.2-0.2-0.4-0.2-0.8v-3.8h1.9V-147.9z"/>
		<path fill="#FFFFFF" d="M296.4-152.7c-0.3,0-0.5,0.1-0.6,0.2c-0.2,0.2-0.3,0.3-0.3,0.6s0.1,0.5,0.3,0.6c0.2,0.2,0.4,0.2,0.6,0.2
			c0.3,0,0.5-0.1,0.6-0.2c0.2-0.2,0.3-0.3,0.3-0.6s-0.1-0.5-0.3-0.6C296.9-152.6,296.7-152.7,296.4-152.7z"/>
		<path fill="#FFFFFF" d="M297-149c-0.2-0.1-0.3-0.2-0.6-0.2c-0.2,0-0.5,0.1-0.6,0.2c-0.2,0.1-0.2,0.2-0.2,0.4v6.4
			c0,0.2,0.1,0.3,0.2,0.3c0.2,0.1,0.3,0.2,0.6,0.2c0.2,0,0.5-0.1,0.6-0.2c0.2-0.1,0.2-0.2,0.2-0.3v-6.4
			C297.2-148.7,297.1-148.9,297-149z"/>
		<path fill="#FFFFFF" d="M307.4-149.2c-0.5,0-0.9,0.1-1.3,0.4s-0.8,0.6-1,1.2c-0.2-0.5-0.5-0.9-0.8-1.2c-0.3-0.3-0.8-0.5-1.2-0.5
			c-0.9,0-1.6,0.4-2.1,1.2v-0.6c0-0.2-0.1-0.3-0.2-0.4c-0.2-0.1-0.3-0.2-0.5-0.2c-0.2,0-0.5,0.1-0.6,0.2c-0.2,0.1-0.2,0.2-0.2,0.4
			v6.4c0,0.2,0.1,0.3,0.2,0.3c0.2,0.1,0.3,0.2,0.6,0.2c0.2,0,0.4-0.1,0.6-0.2s0.2-0.2,0.2-0.3v-3.9c0-0.5,0.2-0.9,0.5-1.2
			c0.3-0.3,0.6-0.5,1-0.5c0.4,0,0.8,0.2,1,0.5c0.3,0.3,0.5,0.7,0.5,1.2v4c0,0.2,0.1,0.3,0.2,0.4c0.2,0.1,0.3,0.1,0.6,0.1
			c0.2,0,0.5-0.1,0.6-0.1c0.2-0.1,0.2-0.2,0.2-0.4v-4c0-0.5,0.2-0.9,0.5-1.2c0.3-0.3,0.6-0.5,1-0.5c0.4,0,0.8,0.2,1,0.5
			c0.3,0.3,0.5,0.7,0.5,1.2v3.9c0,0.2,0.1,0.3,0.2,0.3c0.2,0.1,0.3,0.2,0.6,0.2c0.2,0,0.4-0.1,0.6-0.2c0.2-0.1,0.2-0.2,0.2-0.3v-3.9
			c0-0.9-0.3-1.7-0.8-2.3C308.8-148.9,308.1-149.2,307.4-149.2z"/>
		<path fill="#FFFFFF" d="M316.8-144.9c0.2,0,0.4,0,0.5-0.1s0.3-0.1,0.5-0.2c0.2-0.1,0.3-0.2,0.3-0.4c0.1-0.2,0.1-0.5,0.1-0.8
			c0-0.8-0.3-1.5-0.9-2.1c-0.6-0.5-1.3-0.8-2.2-0.8c-0.9,0-1.7,0.3-2.3,0.9s-1,1.3-1,2.2v1.5c0,0.9,0.3,1.7,1,2.3s1.6,0.9,2.6,0.9
			c0.8,0,1.3-0.1,1.9-0.4s0.8-0.5,0.8-0.8c0-0.2-0.1-0.3-0.2-0.5c-0.1-0.2-0.3-0.2-0.5-0.2c-0.1,0-0.3,0.1-0.7,0.3
			c-0.3,0.2-0.8,0.3-1.2,0.3c-0.6,0-1.1-0.2-1.5-0.5c-0.3-0.3-0.6-0.8-0.6-1.3v-0.3L316.8-144.9L316.8-144.9z M313.5-146.5
			c0-0.4,0.2-0.8,0.5-1c0.3-0.3,0.7-0.4,1.1-0.4c0.5,0,0.8,0.2,1.1,0.5c0.3,0.3,0.5,0.6,0.5,1c0,0.2-0.1,0.3-0.1,0.3
			s-0.2,0.1-0.5,0.1h-2.6L313.5-146.5L313.5-146.5z"/>
	</g>
	<g>
		<path fill="#FFFFFF" d="M280.5-171.1c-0.2-0.3-0.1-0.6,0.1-0.8c0.5-0.6,1-1.3,1.6-1.9c0.2-0.3,0.5-0.3,0.8-0.2
			c2,0.9,4,1.7,5.9,2.6c0.3,0.1,0.4,0.3,0.4,0.6c0,0.6,0,1.3,0,2c0,1-0.8,1.7-1.9,1.4c-0.1,0-0.1,0-0.2,0c-0.2,0.3-0.3,0.7-0.5,1
			c-0.8,1.6-1.5,3.1-2.6,4.5c-0.5,0.7-1.1,1.3-1.9,1.9c-0.1,0.1-0.2,0.2-0.2,0.3c0,1.1,0,2.3,0,3.4c0,0.1,0,0.1,0,0.2
			c0.3,0,0.5,0,0.8,0.1c0.6,0.1,1,0.3,1.4,0.9c0.2,0.3,0.5,0.8,0.8,1.2c0.2,0.3,0.3,0.7,0.3,1c0,3.8,0,7.6,0,11.4c0,0.1,0,0.2,0,0.2
			c-0.3,0-0.8,0-1.2,0c0-0.1,0-0.2,0-0.3c0-3.8,0-7.6,0-11.3c0-0.1,0-0.2,0-0.2c-0.2-0.6-0.6-1.2-1-1.7c-0.3-0.1-0.6-0.1-1-0.1
			c0,0.4,0,0.8,0,1.2c0.3,0,0.8,0,1.1,0c0.4,0,0.6,0.2,0.6,0.5s-0.2,0.5-0.6,0.5c-4.9,0-9.8,0-14.8,0c-0.5,0-0.8-0.3-0.6-0.7
			c0.1-0.2,0.2-0.3,0.5-0.3c0.4,0,0.8,0,1.2,0c0-0.4,0-0.8,0-1.2c-0.4,0-0.8,0-1.2,0c-0.2,0-0.3,0.2-0.4,0.3c-0.2,0.3-0.5,0.7-0.7,1
			c-0.1,0.2-0.2,0.4-0.2,0.6c0,3.8,0,7.6,0,11.3c0,0.1,0,0.2,0,0.3c-0.3,0-0.8,0-1.2,0c0-0.1,0-0.2,0-0.3c0-3.8,0-7.6,0-11.3
			c0-0.5,0.1-0.8,0.3-1.2c0.2-0.3,0.4-0.6,0.6-1c0.4-0.6,1-1,1.8-1c0.2,0,0.5,0,0.8,0c0-0.1,0-0.2,0-0.3c0-1.8,0-3.6,0-5.5
			c0-0.5,0.2-0.7,0.7-0.7s1,0,1.6,0c-0.1-0.3-0.2-0.5-0.2-0.8c-0.1-0.5,0-1,0.3-1.5c0.6-1,1.2-2,1.9-3.1c0.3-0.5,0.6-0.8,1.2-1
			c1.7-0.6,3.4-1.3,5.1-1.9C280.3-171.1,280.4-171.1,280.5-171.1z M275-162.8L275-162.8c-0.1-0.3-0.3-0.5-0.5-0.7
			c-0.2-0.3-0.2-0.8,0.1-0.9c0.2-0.1,0.5-0.2,0.7-0.3c0.6-0.3,1.3-0.6,1.8-1.3c0.2-0.2,0.5-0.2,0.7-0.1c0.2,0.2,0.5,0.3,0.7,0.4
			c0.5,0.2,1,0.3,1.5,0.3c0.2,0,0.5,0.1,0.6,0.3c0.1,0.2,0,0.5-0.2,0.6c-0.1,0.2-0.3,0.3-0.3,0.5c-0.3,0.5-0.6,0.9-0.9,1.4
			c-0.2,0.4-0.5,0.8-0.9,1c-0.9,0.5-1.7,1-2.6,1.6c-0.6,0.3-0.7,1-0.4,1.5c0.3,0.5,0.9,0.6,1.5,0.3c0.7-0.4,1.4-0.9,2.2-1.3
			c0.5-0.3,0.9-0.5,1.4-0.8c1.4-0.5,2.4-1.4,3.3-2.6c0.8-1.2,1.5-2.4,2.1-3.7c0.2-0.5,0.5-1,0.7-1.6c-0.1-0.1-0.1-0.1-0.1-0.1
			c-1.5-0.8-2.9-1.5-4.4-2.2c-0.1-0.1-0.2-0.1-0.3,0c-2,0.8-4,1.5-5.9,2.2c-0.3,0.1-0.6,0.3-0.8,0.6c-0.5,0.9-1,1.9-1.6,2.7
			c-0.5,0.7-0.3,1.3,0.1,1.9c0,0.1,0.1,0.1,0.2,0.1C274-162.8,274.5-162.8,275-162.8z M276.1-161.6
			C276.1-161.7,276.1-161.7,276.1-161.6c-1.7-0.1-3.4-0.1-5.1-0.1c0,2.6,0,5.1,0,7.7c3.4,0,6.9,0,10.3,0c0-1.8,0-3.6,0-5.5
			c-0.5,0.2-0.9,0.3-1.3,0.6c-0.9,0.5-1.8,1-2.7,1.6c-0.5,0.3-1,0.3-1.6,0.3c-0.9-0.2-1.6-0.8-1.7-1.8c-0.2-0.8,0.2-1.7,1-2.2
			C275.4-161.2,275.7-161.5,276.1-161.6z M281.8-171.7c0.1,0.1,0.1,0.1,0.1,0.1c1.9,1,3.9,2,5.9,2.9c0.3,0.2,0.5,0,0.5-0.3
			c0-0.5,0-1,0-1.5c0-0.2-0.1-0.2-0.2-0.3c-0.4-0.2-0.8-0.3-1.2-0.5c-1.3-0.6-2.6-1.1-3.9-1.7c-0.1-0.1-0.2-0.1-0.2,0
			C282.5-172.5,282.1-172.1,281.8-171.7z M277.7-165c-0.6,0.4-1.3,0.8-1.9,1.2c0.1,0.2,0.2,0.5,0.3,0.8c0.1,0.1,0.1,0.2,0.2,0.2
			c0.5,0,0.9,0,1.4,0c0.1,0,0.2-0.1,0.2-0.2c0.3-0.4,0.5-0.9,0.8-1.3c0.1-0.1,0.1-0.2,0.2-0.2C278.5-164.6,278.1-164.8,277.7-165z"
			/>
		<path fill="#FFFFFF" d="M276-141.6c-1.7,0-3.5,0-5.2,0c-0.2,0-0.3-0.1-0.3-0.2c-2.5-4-0.2-9.2,4.4-10.1c3.6-0.6,7.1,1.9,7.7,5.4
			c0.2,1.6-0.1,3.2-0.9,4.6c-0.1,0.2-0.2,0.2-0.4,0.2C279.4-141.6,277.7-141.6,276-141.6z M275.8-145.4c-0.1-0.1-0.1-0.2-0.2-0.2
			c-0.9-0.9-1.7-1.7-2.6-2.6c-0.3-0.3-0.7-0.3-1,0c-0.3,0.3-0.3,0.6,0,1c1.1,1.1,2.2,2.2,3.3,3.3c0.3,0.3,0.6,0.3,1,0
			c0.9-0.9,1.9-1.9,2.8-2.8c0.3-0.3,0.3-0.7,0-1c-0.3-0.3-0.6-0.3-1,0c-0.2,0.2-0.5,0.5-0.7,0.7C276.9-146.5,276.4-146,275.8-145.4z
			"/>
	</g>
</g>
</svg>
