<?xml version="1.0" encoding="utf-8"?>
<!-- Generator: Adobe Illustrator 17.1.0, SVG Export Plug-In . SVG Version: 6.00 Build 0)  -->
<!DOCTYPE svg PUBLIC "-//W3C//DTD SVG 1.1//EN" "http://www.w3.org/Graphics/SVG/1.1/DTD/svg11.dtd">
<svg version="1.1" id="Capa_1" xmlns="http://www.w3.org/2000/svg" xmlns:xlink="http://www.w3.org/1999/xlink" x="0px" y="0px"
	 viewBox="0 0 333.5 50.2" enable-background="new 0 0 333.5 50.2" xml:space="preserve">
<g enable-background="new    ">
	<path fill="#FFFFFF" d="M0,37.1v-5.9c0-3.9,1.1-7.1,3.4-9.5c2.3-2.4,5.7-3.6,10.2-3.6c2.8,0,5.2,0.5,7.2,1.5c1.9,1,2.9,2.1,2.9,3.3
		c0,0.7-0.3,1.5-0.8,2.2c-0.5,0.7-1.2,1.1-1.9,1.1c-0.2,0-1-0.3-2.3-1c-1.3-0.7-2.8-1-4.4-1c-4.8,0-7.2,2.3-7.2,6.9v5.9
		c0,4.6,2.4,6.9,7.3,6.9c1.7,0,3.2-0.4,4.5-1.1c1.3-0.7,2.1-1.1,2.4-1.1c0.9,0,1.6,0.4,2.1,1.1c0.5,0.7,0.8,1.4,0.8,2.2
		c0,1.2-1,2.4-3,3.4c-2,1.1-4.5,1.6-7.4,1.6c-4.6,0-8-1.2-10.3-3.6C1.1,44.3,0,41.1,0,37.1z"/>
	<path fill="#FFFFFF" d="M29.9,47.4V2.3c0-0.7,0.3-1.2,1-1.6c0.6-0.4,1.5-0.6,2.5-0.6c1,0,1.8,0.2,2.5,0.6c0.7,0.4,1,1,1,1.6v20.9
		c0.7-1.4,1.8-2.6,3.3-3.6c1.5-1,3.2-1.5,5.2-1.5c3.1,0,5.8,1.3,8.1,3.8c2.3,2.5,3.4,5.6,3.4,9.1v16.3c0,0.7-0.4,1.3-1.1,1.7
		c-0.7,0.4-1.5,0.6-2.4,0.6c-0.9,0-1.7-0.2-2.4-0.6s-1.1-1-1.1-1.7V31.1c0-1.7-0.7-3.3-2-4.7c-1.3-1.4-2.9-2.1-4.7-2.1
		c-1.7,0-3.1,0.6-4.4,1.9c-1.3,1.2-1.9,2.9-1.9,4.9v16.3c0,0.6-0.4,1.1-1.1,1.6s-1.5,0.7-2.4,0.7c-1,0-1.8-0.2-2.4-0.7
		C30.2,48.5,29.9,48,29.9,47.4z"/>
	<path fill="#FFFFFF" d="M63.2,37.1v-6.2c0-3.5,1.3-6.5,4-9c2.7-2.5,5.9-3.8,9.7-3.8c3.6,0,6.7,1.1,9.2,3.4c2.6,2.3,3.8,5.2,3.8,8.6
		c0,1.3-0.2,2.4-0.5,3.2s-0.8,1.4-1.4,1.7c-0.7,0.3-1.3,0.5-1.8,0.6C85.7,35.9,84.9,36,84,36H70.1v1.5c0,2.2,0.8,4,2.4,5.3
		c1.6,1.3,3.6,2,6.2,2c1.8,0,3.5-0.4,5.1-1.3c1.6-0.8,2.6-1.3,2.9-1.3c0.7,0,1.4,0.4,1.9,1.1c0.5,0.7,0.8,1.4,0.8,2
		c0,1.1-1.1,2.2-3.2,3.3c-2.1,1.1-4.7,1.7-7.8,1.7c-4.5,0-8.1-1.2-11-3.6C64.7,44.2,63.2,41,63.2,37.1z M70.1,31.6h10.9
		c1,0,1.6-0.1,1.9-0.4c0.3-0.3,0.5-0.8,0.5-1.6c0-1.7-0.6-3.2-1.9-4.4c-1.3-1.2-2.8-1.8-4.7-1.8c-1.8,0-3.4,0.6-4.7,1.7
		c-1.3,1.1-2,2.6-2,4.4V31.6z"/>
	<path fill="#FFFFFF" d="M95.3,37.1v-5.9c0-3.9,1.1-7.1,3.4-9.5c2.3-2.4,5.7-3.6,10.2-3.6c2.8,0,5.2,0.5,7.2,1.5
		c1.9,1,2.9,2.1,2.9,3.3c0,0.7-0.3,1.5-0.8,2.2c-0.5,0.7-1.2,1.1-1.9,1.1c-0.2,0-1-0.3-2.3-1c-1.3-0.7-2.8-1-4.4-1
		c-4.8,0-7.2,2.3-7.2,6.9v5.9c0,4.6,2.4,6.9,7.3,6.9c1.7,0,3.2-0.4,4.5-1.1c1.3-0.7,2.1-1.1,2.4-1.1c0.9,0,1.6,0.4,2.1,1.1
		c0.5,0.7,0.8,1.4,0.8,2.2c0,1.2-1,2.4-3,3.4c-2,1.1-4.5,1.6-7.4,1.6c-4.6,0-8-1.2-10.3-3.6C96.5,44.3,95.3,41.1,95.3,37.1z"/>
	<path fill="#FFFFFF" d="M125.2,47.4V2.2c0-0.7,0.3-1.2,0.9-1.6c0.6-0.4,1.4-0.6,2.4-0.6c1,0,1.9,0.2,2.5,0.6c0.7,0.4,1,1,1,1.6
		v29.3l13.7-12.6c0.4-0.4,0.9-0.6,1.4-0.6c0.7,0,1.5,0.4,2.2,1.1c0.7,0.7,1.1,1.4,1.1,2.2c0,0.6-0.2,1.1-0.6,1.4l-8.5,7.6l10.3,14.9
		c0.3,0.4,0.4,0.8,0.4,1.2c0,0.8-0.4,1.6-1.3,2.3c-0.9,0.8-1.7,1.2-2.6,1.2c-0.7,0-1.4-0.3-1.8-1l-9.7-14.3l-4.8,4.3v8.2
		c0,0.6-0.4,1.1-1.1,1.6s-1.5,0.7-2.5,0.7c-1,0-1.8-0.2-2.4-0.7C125.6,48.5,125.2,48,125.2,47.4z"/>
	<path fill="#FFFFFF" d="M155.7,37.1v-6.2c0-3.5,1.3-6.5,4-9c2.7-2.5,5.9-3.8,9.7-3.8c3.6,0,6.7,1.1,9.2,3.4
		c2.6,2.3,3.8,5.2,3.8,8.6c0,1.3-0.2,2.4-0.5,3.2s-0.8,1.4-1.4,1.7c-0.7,0.3-1.3,0.5-1.8,0.6c-0.6,0.1-1.3,0.1-2.2,0.1h-13.9v1.5
		c0,2.2,0.8,4,2.4,5.3c1.6,1.3,3.6,2,6.2,2c1.8,0,3.5-0.4,5.1-1.3c1.6-0.8,2.6-1.3,2.9-1.3c0.7,0,1.4,0.4,1.9,1.1
		c0.5,0.7,0.8,1.4,0.8,2c0,1.1-1.1,2.2-3.2,3.3c-2.1,1.1-4.7,1.7-7.8,1.7c-4.5,0-8.1-1.2-11-3.6C157.1,44.2,155.7,41,155.7,37.1z
		 M162.6,31.6h10.9c1,0,1.6-0.1,1.9-0.4c0.3-0.3,0.5-0.8,0.5-1.6c0-1.7-0.6-3.2-1.9-4.4c-1.3-1.2-2.8-1.8-4.7-1.8
		c-1.8,0-3.4,0.6-4.7,1.7c-1.3,1.1-2,2.6-2,4.4V31.6z"/>
	<path fill="#FFFFFF" d="M188.8,47.4V20.8c0-0.7,0.3-1.2,1-1.6c0.6-0.4,1.4-0.6,2.4-0.6c0.9,0,1.6,0.2,2.2,0.6
		c0.6,0.4,0.9,1,0.9,1.6v2.9c0.7-1.5,1.9-2.9,3.4-4c1.5-1.1,3.2-1.6,5-1.6h2.1c0.7,0,1.3,0.3,1.8,0.9c0.5,0.6,0.8,1.3,0.8,2.2
		c0,0.8-0.3,1.6-0.8,2.2c-0.5,0.6-1.1,0.9-1.8,0.9h-2.1c-2.1,0-4,0.9-5.6,2.7c-1.6,1.8-2.4,4.1-2.4,7v13.4c0,0.6-0.4,1.1-1.1,1.6
		c-0.7,0.5-1.5,0.7-2.5,0.7c-1,0-1.8-0.2-2.4-0.7C189.1,48.5,188.8,48,188.8,47.4z"/>
</g>
<g>
	<path fill="#E3E5E7" d="M217.6,39.4V6.5c0-0.6,0.4-1.1,1.1-1.6c0.7-0.4,1.5-0.7,2.4-0.7c0.9,0,1.7,0.2,2.4,0.7
		c0.7,0.4,1.1,1,1.1,1.6v12h8c0.6,0,1,0.3,1.4,0.8c0.4,0.5,0.5,1.1,0.5,1.8c0,0.7-0.2,1.3-0.5,1.8c-0.4,0.5-0.8,0.8-1.4,0.8h-8v15.8
		c0,1.6,0.3,2.7,1,3.4c0.7,0.7,1.9,1,3.6,1h2.3c0.9,0,1.6,0.3,2.2,0.9c0.5,0.6,0.8,1.3,0.8,2.1c0,0.8-0.3,1.5-0.8,2.1
		c-0.5,0.6-1.2,0.9-2.2,0.9h-2.3C221.4,49.7,217.6,46.3,217.6,39.4z"/>
	<path fill="#E3E5E7" d="M239.4,7.1c0-1,0.4-1.9,1.2-2.6c0.8-0.7,1.7-1.1,2.8-1.1c1.1,0,2,0.4,2.8,1.1c0.8,0.7,1.2,1.6,1.2,2.6
		c0,1-0.4,1.8-1.2,2.5s-1.7,1.1-2.8,1.1c-1.1,0-2-0.4-2.8-1.1C239.8,8.9,239.4,8.1,239.4,7.1z M240,47.4V20.8c0-0.7,0.3-1.2,1-1.6
		c0.6-0.4,1.5-0.6,2.5-0.6c1,0,1.8,0.2,2.5,0.6c0.7,0.4,1,1,1,1.6v26.6c0,0.6-0.3,1.1-1,1.6c-0.7,0.5-1.5,0.7-2.5,0.7
		c-1,0-1.8-0.2-2.4-0.7C240.4,48.5,240,48,240,47.4z"/>
	<path fill="#E3E5E7" d="M255,47.4V20.8c0-0.7,0.3-1.2,1-1.6c0.6-0.4,1.5-0.6,2.5-0.6c0.8,0,1.6,0.2,2.2,0.6c0.6,0.4,0.9,1,0.9,1.6
		v2.4c1.9-3.4,4.8-5,8.7-5c1.9,0,3.6,0.6,5.2,1.8s2.7,2.8,3.5,4.8c1.1-2.2,2.5-3.8,4.3-4.9c1.8-1.1,3.6-1.7,5.6-1.7
		c3.1,0,5.8,1.2,8.1,3.5c2.3,2.3,3.4,5.5,3.4,9.4v16.3c0,0.6-0.4,1.1-1.1,1.6c-0.7,0.5-1.5,0.7-2.4,0.7c-0.9,0-1.7-0.2-2.4-0.7
		c-0.7-0.5-1.1-1-1.1-1.6V31.1c0-2.1-0.6-3.8-1.8-5c-1.2-1.2-2.7-1.8-4.3-1.8c-1.6,0-3.1,0.6-4.3,1.8c-1.2,1.2-1.9,2.9-1.9,4.9v16.5
		c0,0.7-0.3,1.3-1,1.7s-1.5,0.6-2.5,0.6c-0.9,0-1.7-0.2-2.4-0.6s-1.1-0.9-1.1-1.7V31.1c0-2-0.6-3.6-1.8-4.9
		c-1.2-1.3-2.6-1.9-4.3-1.9c-1.7,0-3.1,0.6-4.3,1.8c-1.2,1.2-1.8,2.9-1.8,5v16.3c0,0.6-0.4,1.1-1.1,1.6c-0.7,0.5-1.5,0.7-2.4,0.7
		c-1,0-1.8-0.2-2.4-0.7C255.3,48.5,255,48,255,47.4z"/>
	<path fill="#E3E5E7" d="M306.8,37.1v-6.2c0-3.5,1.3-6.5,4-9c2.7-2.5,5.9-3.8,9.7-3.8c3.6,0,6.7,1.1,9.2,3.4
		c2.6,2.3,3.8,5.2,3.8,8.6c0,1.3-0.2,2.4-0.5,3.2s-0.8,1.4-1.4,1.7c-0.7,0.3-1.3,0.5-1.8,0.6c-0.6,0.1-1.3,0.1-2.2,0.1h-13.9v1.5
		c0,2.2,0.8,4,2.4,5.3c1.6,1.3,3.6,2,6.2,2c1.8,0,3.5-0.4,5.1-1.3c1.6-0.8,2.6-1.3,2.9-1.3c0.7,0,1.4,0.4,1.9,1.1
		c0.5,0.7,0.8,1.4,0.8,2c0,1.1-1.1,2.2-3.2,3.3c-2.1,1.1-4.7,1.7-7.8,1.7c-4.5,0-8.1-1.2-11-3.6C308.2,44.2,306.8,41,306.8,37.1z
		 M313.7,31.6h10.9c1,0,1.6-0.1,1.9-0.4c0.3-0.3,0.5-0.8,0.5-1.6c0-1.7-0.6-3.2-1.9-4.4c-1.3-1.2-2.8-1.8-4.7-1.8
		c-1.8,0-3.4,0.6-4.7,1.7c-1.3,1.1-2,2.6-2,4.4V31.6z"/>
</g>
</svg>
